<svg id="visual" viewBox="0 0 960 540" width="960" height="540" xmlns="http://www.w3.org/2000/svg" xmlns:xlink="http://www.w3.org/1999/xlink" version="1.1"><g stroke-width="1" stroke-linejoin="bevel"><path d="M469 249L491 314L504 253Z" fill="#0d232e" stroke="#0d232e"></path><path d="M469 249L443 300L491 314Z" fill="#000b17" stroke="#000b17"></path><path d="M491 314L525 323L504 253Z" fill="#0d232e" stroke="#0d232e"></path><path d="M358 257L412 335L443 300Z" fill="#0d232e" stroke="#0d232e"></path><path d="M443 300L412 335L491 314Z" fill="#051d27" stroke="#051d27"></path><path d="M487 398L549 343L525 323Z" fill="#142a35" stroke="#142a35"></path><path d="M487 398L525 323L491 314Z" fill="#021a24" stroke="#021a24"></path><path d="M525 323L579 270L504 253Z" fill="#001721" stroke="#001721"></path><path d="M458 172L425 207L469 249Z" fill="#00101a" stroke="#00101a"></path><path d="M469 249L425 207L443 300Z" fill="#000000" stroke="#000000"></path><path d="M596 306L579 270L525 323Z" fill="#00141e" stroke="#00141e"></path><path d="M504 253L458 172L469 249Z" fill="#001721" stroke="#001721"></path><path d="M509 156L458 172L504 253Z" fill="#102732" stroke="#102732"></path><path d="M549 343L596 306L525 323Z" fill="#051d27" stroke="#051d27"></path><path d="M322 277L398 359L412 335Z" fill="#0d232e" stroke="#0d232e"></path><path d="M412 335L487 398L491 314Z" fill="#102732" stroke="#102732"></path><path d="M396 172L382 222L425 207Z" fill="#09202b" stroke="#09202b"></path><path d="M425 207L382 222L443 300Z" fill="#000b17" stroke="#000b17"></path><path d="M470 410L487 398L412 335Z" fill="#09202b" stroke="#09202b"></path><path d="M549 343L598 328L596 306Z" fill="#142a35" stroke="#142a35"></path><path d="M589 409L598 328L549 343Z" fill="#00141e" stroke="#00141e"></path><path d="M576 166L509 156L504 253Z" fill="#00101a" stroke="#00101a"></path><path d="M382 222L358 257L443 300Z" fill="#09202b" stroke="#09202b"></path><path d="M398 359L470 410L412 335Z" fill="#021a24" stroke="#021a24"></path><path d="M487 398L589 409L549 343Z" fill="#00141e" stroke="#00141e"></path><path d="M576 166L511 152L509 156Z" fill="#000000" stroke="#000000"></path><path d="M509 156L471 132L458 172Z" fill="#142a35" stroke="#142a35"></path><path d="M458 172L396 172L425 207Z" fill="#000b17" stroke="#000b17"></path><path d="M291 229L322 277L358 257Z" fill="#021a24" stroke="#021a24"></path><path d="M471 132L396 172L458 172Z" fill="#000b17" stroke="#000b17"></path><path d="M351 401L386 383L398 359Z" fill="#00101a" stroke="#00101a"></path><path d="M398 359L386 383L470 410Z" fill="#001721" stroke="#001721"></path><path d="M629 153L576 166L579 270Z" fill="#000b17" stroke="#000b17"></path><path d="M579 270L576 166L504 253Z" fill="#00141e" stroke="#00141e"></path><path d="M511 95L471 132L511 152Z" fill="#000000" stroke="#000000"></path><path d="M511 152L471 132L509 156Z" fill="#000b17" stroke="#000b17"></path><path d="M291 229L358 257L382 222Z" fill="#09202b" stroke="#09202b"></path><path d="M358 257L322 277L412 335Z" fill="#021a24" stroke="#021a24"></path><path d="M533 455L589 409L487 398Z" fill="#00141e" stroke="#00141e"></path><path d="M598 328L651 302L596 306Z" fill="#051d27" stroke="#051d27"></path><path d="M596 306L651 302L579 270Z" fill="#051d27" stroke="#051d27"></path><path d="M699 381L651 302L598 328Z" fill="#000000" stroke="#000000"></path><path d="M629 153L579 132L576 166Z" fill="#102732" stroke="#102732"></path><path d="M576 166L579 132L511 152Z" fill="#142a35" stroke="#142a35"></path><path d="M298 304L351 401L398 359Z" fill="#09202b" stroke="#09202b"></path><path d="M386 383L409 458L470 410Z" fill="#09202b" stroke="#09202b"></path><path d="M470 505L533 455L470 410Z" fill="#001721" stroke="#001721"></path><path d="M470 410L533 455L487 398Z" fill="#00101a" stroke="#00101a"></path><path d="M260 249L298 304L322 277Z" fill="#001721" stroke="#001721"></path><path d="M322 277L298 304L398 359Z" fill="#142a35" stroke="#142a35"></path><path d="M579 132L511 95L511 152Z" fill="#00141e" stroke="#00141e"></path><path d="M392 83L354 127L396 172Z" fill="#001721" stroke="#001721"></path><path d="M651 302L673 262L579 270Z" fill="#142a35" stroke="#142a35"></path><path d="M353 449L409 458L386 383Z" fill="#00141e" stroke="#00141e"></path><path d="M673 262L629 153L579 270Z" fill="#00141e" stroke="#00141e"></path><path d="M568 72L490 66L511 95Z" fill="#001721" stroke="#001721"></path><path d="M511 540L565 459L533 455Z" fill="#00101a" stroke="#00101a"></path><path d="M533 455L565 459L589 409Z" fill="#102732" stroke="#102732"></path><path d="M694 397L699 381L598 328Z" fill="#021a24" stroke="#021a24"></path><path d="M702 282L696 249L673 262Z" fill="#000000" stroke="#000000"></path><path d="M354 127L382 222L396 172Z" fill="#00101a" stroke="#00101a"></path><path d="M276 201L291 229L382 222Z" fill="#102732" stroke="#102732"></path><path d="M436 80L396 172L471 132Z" fill="#00141e" stroke="#00141e"></path><path d="M490 66L436 80L471 132Z" fill="#00141e" stroke="#00141e"></path><path d="M565 459L609 452L589 409Z" fill="#000000" stroke="#000000"></path><path d="M280 421L353 449L351 401Z" fill="#051d27" stroke="#051d27"></path><path d="M351 401L353 449L386 383Z" fill="#00101a" stroke="#00101a"></path><path d="M568 72L511 95L579 132Z" fill="#000b17" stroke="#000b17"></path><path d="M511 95L490 66L471 132Z" fill="#142a35" stroke="#142a35"></path><path d="M702 282L673 262L651 302Z" fill="#001721" stroke="#001721"></path><path d="M673 262L696 249L629 153Z" fill="#000000" stroke="#000000"></path><path d="M490 66L431 71L436 80Z" fill="#0d232e" stroke="#0d232e"></path><path d="M436 80L392 83L396 172Z" fill="#051d27" stroke="#051d27"></path><path d="M431 71L392 83L436 80Z" fill="#021a24" stroke="#021a24"></path><path d="M732 338L702 282L651 302Z" fill="#00141e" stroke="#00141e"></path><path d="M354 127L276 201L382 222Z" fill="#00141e" stroke="#00141e"></path><path d="M291 229L260 249L322 277Z" fill="#051d27" stroke="#051d27"></path><path d="M269 159L276 201L354 127Z" fill="#09202b" stroke="#09202b"></path><path d="M577 540L620 456L609 452Z" fill="#142a35" stroke="#142a35"></path><path d="M609 452L620 456L589 409Z" fill="#0d232e" stroke="#0d232e"></path><path d="M471 540L470 505L439 540Z" fill="#102732" stroke="#102732"></path><path d="M409 458L470 505L470 410Z" fill="#000000" stroke="#000000"></path><path d="M565 459L577 540L609 452Z" fill="#000000" stroke="#000000"></path><path d="M629 153L568 72L579 132Z" fill="#000000" stroke="#000000"></path><path d="M276 201L260 249L291 229Z" fill="#000000" stroke="#000000"></path><path d="M298 304L273 370L351 401Z" fill="#021a24" stroke="#021a24"></path><path d="M258 332L273 370L298 304Z" fill="#00101a" stroke="#00101a"></path><path d="M260 249L258 332L298 304Z" fill="#0d232e" stroke="#0d232e"></path><path d="M694 397L598 328L589 409Z" fill="#142a35" stroke="#142a35"></path><path d="M681 443L694 397L589 409Z" fill="#00101a" stroke="#00101a"></path><path d="M268 154L269 159L354 127Z" fill="#00101a" stroke="#00101a"></path><path d="M165 234L209 267L169 181Z" fill="#001721" stroke="#001721"></path><path d="M202 451L280 421L273 370Z" fill="#09202b" stroke="#09202b"></path><path d="M273 370L280 421L351 401Z" fill="#09202b" stroke="#09202b"></path><path d="M439 540L470 505L409 458Z" fill="#051d27" stroke="#051d27"></path><path d="M288 33L268 154L354 127Z" fill="#051d27" stroke="#051d27"></path><path d="M169 181L260 249L276 201Z" fill="#00141e" stroke="#00141e"></path><path d="M699 381L732 338L651 302Z" fill="#00141e" stroke="#00141e"></path><path d="M754 145L706 144L696 249Z" fill="#00141e" stroke="#00141e"></path><path d="M742 387L732 338L699 381Z" fill="#000b17" stroke="#000b17"></path><path d="M620 456L681 443L589 409Z" fill="#0d232e" stroke="#0d232e"></path><path d="M694 397L742 387L699 381Z" fill="#102732" stroke="#102732"></path><path d="M697 443L681 443L665 540Z" fill="#000b17" stroke="#000b17"></path><path d="M439 540L409 458L327 540Z" fill="#001721" stroke="#001721"></path><path d="M470 505L511 540L533 455Z" fill="#0d232e" stroke="#0d232e"></path><path d="M471 540L511 540L470 505Z" fill="#0d232e" stroke="#0d232e"></path><path d="M696 249L706 144L629 153Z" fill="#00101a" stroke="#00101a"></path><path d="M629 153L685 102L568 72Z" fill="#051d27" stroke="#051d27"></path><path d="M738 131L706 144L754 145Z" fill="#09202b" stroke="#09202b"></path><path d="M327 540L409 458L353 449Z" fill="#102732" stroke="#102732"></path><path d="M665 540L681 443L620 456Z" fill="#000b17" stroke="#000b17"></path><path d="M681 443L697 443L694 397Z" fill="#001721" stroke="#001721"></path><path d="M706 144L685 102L629 153Z" fill="#000000" stroke="#000000"></path><path d="M197 155L276 201L269 159Z" fill="#000b17" stroke="#000b17"></path><path d="M260 249L209 267L258 332Z" fill="#000b17" stroke="#000b17"></path><path d="M258 332L156 374L273 370Z" fill="#0d232e" stroke="#0d232e"></path><path d="M511 540L577 540L565 459Z" fill="#000b17" stroke="#000b17"></path><path d="M697 443L742 387L694 397Z" fill="#051d27" stroke="#051d27"></path><path d="M754 145L815 247L780 137Z" fill="#00101a" stroke="#00101a"></path><path d="M527 0L459 0L490 66Z" fill="#051d27" stroke="#051d27"></path><path d="M490 66L459 0L431 71Z" fill="#001721" stroke="#001721"></path><path d="M431 71L393 0L392 83Z" fill="#00101a" stroke="#00101a"></path><path d="M392 83L288 33L354 127Z" fill="#000000" stroke="#000000"></path><path d="M527 0L490 66L568 72Z" fill="#0d232e" stroke="#0d232e"></path><path d="M706 144L700 98L685 102Z" fill="#051d27" stroke="#051d27"></path><path d="M564 0L527 0L568 72Z" fill="#000b17" stroke="#000b17"></path><path d="M738 131L700 98L706 144Z" fill="#000000" stroke="#000000"></path><path d="M685 79L568 72L685 102Z" fill="#000000" stroke="#000000"></path><path d="M700 98L685 79L685 102Z" fill="#09202b" stroke="#09202b"></path><path d="M666 0L564 0L568 72Z" fill="#051d27" stroke="#051d27"></path><path d="M459 0L393 0L431 71Z" fill="#09202b" stroke="#09202b"></path><path d="M746 0L666 0L685 79Z" fill="#051d27" stroke="#051d27"></path><path d="M696 249L815 247L754 145Z" fill="#142a35" stroke="#142a35"></path><path d="M202 451L270 493L280 421Z" fill="#102732" stroke="#102732"></path><path d="M280 421L270 493L353 449Z" fill="#000000" stroke="#000000"></path><path d="M696 249L702 282L815 247Z" fill="#021a24" stroke="#021a24"></path><path d="M738 131L783 82L700 98Z" fill="#0d232e" stroke="#0d232e"></path><path d="M290 515L327 540L353 449Z" fill="#051d27" stroke="#051d27"></path><path d="M270 493L290 515L353 449Z" fill="#000000" stroke="#000000"></path><path d="M165 234L179 323L209 267Z" fill="#001721" stroke="#001721"></path><path d="M209 267L179 323L258 332Z" fill="#00141e" stroke="#00141e"></path><path d="M210 91L197 155L268 154Z" fill="#00141e" stroke="#00141e"></path><path d="M268 154L197 155L269 159Z" fill="#021a24" stroke="#021a24"></path><path d="M325 0L288 33L392 83Z" fill="#021a24" stroke="#021a24"></path><path d="M577 540L665 540L620 456Z" fill="#0d232e" stroke="#0d232e"></path><path d="M805 442L804 392L742 387Z" fill="#000b17" stroke="#000b17"></path><path d="M169 181L209 267L260 249Z" fill="#09202b" stroke="#09202b"></path><path d="M393 0L325 0L392 83Z" fill="#09202b" stroke="#09202b"></path><path d="M171 418L202 451L273 370Z" fill="#000000" stroke="#000000"></path><path d="M266 540L272 540L290 515Z" fill="#142a35" stroke="#142a35"></path><path d="M197 155L169 181L276 201Z" fill="#142a35" stroke="#142a35"></path><path d="M141 119L169 181L197 155Z" fill="#051d27" stroke="#051d27"></path><path d="M815 247L702 282L732 338Z" fill="#0d232e" stroke="#0d232e"></path><path d="M754 145L780 137L738 131Z" fill="#00101a" stroke="#00101a"></path><path d="M685 79L666 0L568 72Z" fill="#000b17" stroke="#000b17"></path><path d="M225 55L268 154L288 33Z" fill="#051d27" stroke="#051d27"></path><path d="M225 55L210 91L268 154Z" fill="#001721" stroke="#001721"></path><path d="M814 328L732 338L742 387Z" fill="#051d27" stroke="#051d27"></path><path d="M814 328L815 247L732 338Z" fill="#000000" stroke="#000000"></path><path d="M804 392L814 328L742 387Z" fill="#0d232e" stroke="#0d232e"></path><path d="M266 540L290 515L270 493Z" fill="#102732" stroke="#102732"></path><path d="M290 515L272 540L327 540Z" fill="#0d232e" stroke="#0d232e"></path><path d="M783 82L685 79L700 98Z" fill="#142a35" stroke="#142a35"></path><path d="M325 0L295 0L288 33Z" fill="#142a35" stroke="#142a35"></path><path d="M185 472L266 540L270 493Z" fill="#000000" stroke="#000000"></path><path d="M771 461L742 387L697 443Z" fill="#001721" stroke="#001721"></path><path d="M740 540L771 461L697 443Z" fill="#021a24" stroke="#021a24"></path><path d="M106 339L156 374L179 323Z" fill="#001721" stroke="#001721"></path><path d="M179 323L156 374L258 332Z" fill="#142a35" stroke="#142a35"></path><path d="M156 374L171 418L273 370Z" fill="#102732" stroke="#102732"></path><path d="M202 451L185 472L270 493Z" fill="#000b17" stroke="#000b17"></path><path d="M227 0L225 55L288 33Z" fill="#00141e" stroke="#00141e"></path><path d="M104 165L113 222L169 181Z" fill="#000000" stroke="#000000"></path><path d="M145 441L185 472L171 418Z" fill="#000b17" stroke="#000b17"></path><path d="M171 418L185 472L202 451Z" fill="#000000" stroke="#000000"></path><path d="M803 48L783 82L844 117Z" fill="#00141e" stroke="#00141e"></path><path d="M780 137L783 82L738 131Z" fill="#000000" stroke="#000000"></path><path d="M790 540L805 442L771 461Z" fill="#00101a" stroke="#00101a"></path><path d="M771 461L805 442L742 387Z" fill="#102732" stroke="#102732"></path><path d="M860 345L848 326L814 328Z" fill="#00141e" stroke="#00141e"></path><path d="M665 540L740 540L697 443Z" fill="#102732" stroke="#102732"></path><path d="M874 274L845 230L815 247Z" fill="#000b17" stroke="#000b17"></path><path d="M815 247L845 230L780 137Z" fill="#051d27" stroke="#051d27"></path><path d="M848 326L815 247L814 328Z" fill="#00141e" stroke="#00141e"></path><path d="M860 345L814 328L854 379Z" fill="#142a35" stroke="#142a35"></path><path d="M124 398L145 441L171 418Z" fill="#000b17" stroke="#000b17"></path><path d="M185 472L153 540L266 540Z" fill="#0d232e" stroke="#0d232e"></path><path d="M124 398L171 418L156 374Z" fill="#000b17" stroke="#000b17"></path><path d="M106 339L179 323L102 329Z" fill="#00101a" stroke="#00101a"></path><path d="M141 119L197 155L210 91Z" fill="#021a24" stroke="#021a24"></path><path d="M169 181L113 222L165 234Z" fill="#000000" stroke="#000000"></path><path d="M106 339L124 398L156 374Z" fill="#142a35" stroke="#142a35"></path><path d="M148 28L210 91L225 55Z" fill="#09202b" stroke="#09202b"></path><path d="M148 28L141 119L210 91Z" fill="#000b17" stroke="#000b17"></path><path d="M295 0L227 0L288 33Z" fill="#000b17" stroke="#000b17"></path><path d="M102 329L179 323L165 234Z" fill="#00101a" stroke="#00101a"></path><path d="M854 379L814 328L804 392Z" fill="#142a35" stroke="#142a35"></path><path d="M848 326L874 274L815 247Z" fill="#000000" stroke="#000000"></path><path d="M864 443L854 379L804 392Z" fill="#0d232e" stroke="#0d232e"></path><path d="M864 443L804 392L805 442Z" fill="#00101a" stroke="#00101a"></path><path d="M113 222L102 329L165 234Z" fill="#051d27" stroke="#051d27"></path><path d="M106 339L72 394L124 398Z" fill="#09202b" stroke="#09202b"></path><path d="M783 82L746 0L685 79Z" fill="#0d232e" stroke="#0d232e"></path><path d="M903 302L874 274L848 326Z" fill="#051d27" stroke="#051d27"></path><path d="M844 117L783 82L780 137Z" fill="#001721" stroke="#001721"></path><path d="M783 82L803 48L746 0Z" fill="#021a24" stroke="#021a24"></path><path d="M903 302L848 326L860 345Z" fill="#102732" stroke="#102732"></path><path d="M844 117L780 137L879 175Z" fill="#102732" stroke="#102732"></path><path d="M879 175L780 137L845 230Z" fill="#142a35" stroke="#142a35"></path><path d="M141 119L104 165L169 181Z" fill="#021a24" stroke="#021a24"></path><path d="M60 300L71 325L102 329Z" fill="#142a35" stroke="#142a35"></path><path d="M25 129L104 165L141 119Z" fill="#00141e" stroke="#00141e"></path><path d="M740 540L790 540L771 461Z" fill="#00141e" stroke="#00141e"></path><path d="M227 0L194 0L225 55Z" fill="#021a24" stroke="#021a24"></path><path d="M930 208L879 175L845 230Z" fill="#102732" stroke="#102732"></path><path d="M898 0L818 0L803 48Z" fill="#00141e" stroke="#00141e"></path><path d="M875 540L864 443L805 442Z" fill="#102732" stroke="#102732"></path><path d="M960 378L903 302L860 345Z" fill="#021a24" stroke="#021a24"></path><path d="M60 300L102 329L113 222Z" fill="#00101a" stroke="#00101a"></path><path d="M102 329L71 325L106 339Z" fill="#00101a" stroke="#00101a"></path><path d="M107 540L153 540L145 441Z" fill="#142a35" stroke="#142a35"></path><path d="M194 0L148 28L225 55Z" fill="#000b17" stroke="#000b17"></path><path d="M72 394L145 441L124 398Z" fill="#142a35" stroke="#142a35"></path><path d="M145 441L153 540L185 472Z" fill="#09202b" stroke="#09202b"></path><path d="M960 378L860 345L854 379Z" fill="#021a24" stroke="#021a24"></path><path d="M874 274L930 208L845 230Z" fill="#142a35" stroke="#142a35"></path><path d="M897 446L873 440L864 443Z" fill="#021a24" stroke="#021a24"></path><path d="M864 443L873 440L854 379Z" fill="#000b17" stroke="#000b17"></path><path d="M56 221L60 300L113 222Z" fill="#001721" stroke="#001721"></path><path d="M71 325L72 394L106 339Z" fill="#001721" stroke="#001721"></path><path d="M60 208L113 222L104 165Z" fill="#0d232e" stroke="#0d232e"></path><path d="M0 350L72 394L71 325Z" fill="#021a24" stroke="#021a24"></path><path d="M25 129L60 208L104 165Z" fill="#001721" stroke="#001721"></path><path d="M60 208L56 221L113 222Z" fill="#000b17" stroke="#000b17"></path><path d="M960 156L889 134L879 175Z" fill="#09202b" stroke="#09202b"></path><path d="M879 175L889 134L844 117Z" fill="#000000" stroke="#000000"></path><path d="M898 0L803 48L844 117Z" fill="#00141e" stroke="#00141e"></path><path d="M803 48L818 0L746 0Z" fill="#001721" stroke="#001721"></path><path d="M194 0L141 0L148 28Z" fill="#00101a" stroke="#00101a"></path><path d="M148 28L100 25L141 119Z" fill="#051d27" stroke="#051d27"></path><path d="M875 540L897 446L864 443Z" fill="#0d232e" stroke="#0d232e"></path><path d="M873 440L897 446L854 379Z" fill="#00101a" stroke="#00101a"></path><path d="M960 230L930 208L874 274Z" fill="#021a24" stroke="#021a24"></path><path d="M889 134L920 97L844 117Z" fill="#051d27" stroke="#051d27"></path><path d="M960 230L874 274L903 302Z" fill="#00101a" stroke="#00101a"></path><path d="M57 478L107 540L145 441Z" fill="#09202b" stroke="#09202b"></path><path d="M141 0L100 25L148 28Z" fill="#00141e" stroke="#00141e"></path><path d="M0 215L0 255L56 221Z" fill="#021a24" stroke="#021a24"></path><path d="M72 394L57 478L145 441Z" fill="#00141e" stroke="#00141e"></path><path d="M0 441L57 478L72 394Z" fill="#000000" stroke="#000000"></path><path d="M0 331L71 325L60 300Z" fill="#00101a" stroke="#00101a"></path><path d="M790 540L875 540L805 442Z" fill="#00101a" stroke="#00101a"></path><path d="M960 120L920 97L889 134Z" fill="#09202b" stroke="#09202b"></path><path d="M960 378L854 379L897 446Z" fill="#001721" stroke="#001721"></path><path d="M960 378L960 299L903 302Z" fill="#021a24" stroke="#021a24"></path><path d="M930 208L960 156L879 175Z" fill="#000000" stroke="#000000"></path><path d="M96 0L75 33L100 25Z" fill="#000b17" stroke="#000b17"></path><path d="M100 25L75 33L141 119Z" fill="#021a24" stroke="#021a24"></path><path d="M141 0L96 0L100 25Z" fill="#001721" stroke="#001721"></path><path d="M960 299L960 230L903 302Z" fill="#142a35" stroke="#142a35"></path><path d="M75 33L25 129L141 119Z" fill="#00141e" stroke="#00141e"></path><path d="M56 221L0 255L60 300Z" fill="#0d232e" stroke="#0d232e"></path><path d="M0 215L56 221L60 208Z" fill="#00101a" stroke="#00101a"></path><path d="M0 255L0 331L60 300Z" fill="#00141e" stroke="#00141e"></path><path d="M960 445L960 378L897 446Z" fill="#051d27" stroke="#051d27"></path><path d="M25 129L0 215L60 208Z" fill="#0d232e" stroke="#0d232e"></path><path d="M0 331L0 350L71 325Z" fill="#000b17" stroke="#000b17"></path><path d="M960 230L960 156L930 208Z" fill="#09202b" stroke="#09202b"></path><path d="M960 58L898 0L920 97Z" fill="#0d232e" stroke="#0d232e"></path><path d="M920 97L898 0L844 117Z" fill="#021a24" stroke="#021a24"></path><path d="M960 156L960 120L889 134Z" fill="#021a24" stroke="#021a24"></path><path d="M960 454L960 445L897 446Z" fill="#102732" stroke="#102732"></path><path d="M936 540L960 454L897 446Z" fill="#051d27" stroke="#051d27"></path><path d="M0 350L0 441L72 394Z" fill="#102732" stroke="#102732"></path><path d="M57 478L42 540L107 540Z" fill="#142a35" stroke="#142a35"></path><path d="M0 31L0 118L25 129Z" fill="#142a35" stroke="#142a35"></path><path d="M25 129L0 118L0 215Z" fill="#001721" stroke="#001721"></path><path d="M0 31L25 129L75 33Z" fill="#102732" stroke="#102732"></path><path d="M0 540L42 540L57 478Z" fill="#09202b" stroke="#09202b"></path><path d="M0 441L0 451L57 478Z" fill="#0d232e" stroke="#0d232e"></path><path d="M875 540L936 540L897 446Z" fill="#000000" stroke="#000000"></path><path d="M960 120L960 58L920 97Z" fill="#000b17" stroke="#000b17"></path><path d="M936 540L960 540L960 454Z" fill="#001721" stroke="#001721"></path><path d="M0 0L0 31L75 33Z" fill="#000b17" stroke="#000b17"></path><path d="M0 451L0 540L57 478Z" fill="#00141e" stroke="#00141e"></path><path d="M960 58L960 0L898 0Z" fill="#051d27" stroke="#051d27"></path><path d="M96 0L0 0L75 33Z" fill="#102732" stroke="#102732"></path></g></svg>